<svg xmlns="http://www.w3.org/2000/svg" version="1.1" xmlns:xlink="http://www.w3.org/1999/xlink" width="1000" height="1000"><style>
    #light-icon {
      display: inline;
    }
    #dark-icon {
      display: none;
    }

    @media (prefers-color-scheme: dark) {
      #light-icon {
        display: none;
      }
      #dark-icon {
        display: inline;
      }
    }
  </style><g id="light-icon"><svg xmlns="http://www.w3.org/2000/svg" version="1.1" xmlns:xlink="http://www.w3.org/1999/xlink" width="1000" height="1000"><g><g transform="matrix(7.8125,0,0,7.8125,0,0)"><svg xmlns="http://www.w3.org/2000/svg" version="1.1" xmlns:xlink="http://www.w3.org/1999/xlink" width="128" height="128" viewBox="0 0 128 128" xml:space="preserve" xmlns:serif="http://www.serif.com/" style="fill-rule:evenodd;clip-rule:evenodd;stroke-linejoin:round;stroke-miterlimit:2;"><g transform="matrix(4,0,0,4,178.721291,256.734397)">
        <g transform="matrix(0.106871,0,0,0.106871,-43.296054,-66.361455)">
            <path d="M95.878,78.151C96.061,78.069 96.244,77.988 96.427,77.906C96.551,78.101 96.676,78.295 96.803,78.488C96.494,78.377 96.186,78.265 95.878,78.151ZM157.435,71.065L157.667,71.114C157.581,71.199 157.495,71.284 157.409,71.369C157.418,71.268 157.427,71.167 157.435,71.065ZM202.263,91.766C225.095,109.986 238.972,137.321 240.77,166.72C241.801,183.58 239.048,199.504 232.5,214.49C225.478,230.562 215.377,244.029 202.023,254.614C203.623,233.841 203.523,212.361 201.717,190.174C200.088,170.148 195.455,148.13 192.146,129.988C190.534,121.148 191.189,113.253 194.556,106.348C196.989,101.359 199.554,96.531 202.263,91.766ZM153.222,275.817C139.668,277.87 126.194,277.178 112.774,273.789C118.271,265.336 123.349,256.618 128.034,247.596L138.115,229.24L137.021,230.931L139.358,226.887L149.282,212.269C149.909,214.234 150.382,216.107 150.689,217.892C151.387,221.956 152.376,229.313 152.676,234.937C153.31,246.791 153.641,253.22 153.647,254.225C153.689,262.078 153.545,269.276 153.222,275.817ZM73.957,254.462C58.618,241.991 47.732,226.83 41.3,208.98C34.653,190.534 33.174,171.843 36.86,152.91C39.934,137.12 46.467,122.65 56.387,109.438C64.147,114.434 71.236,118.392 75.234,120.573C84.021,125.367 92.101,131.001 99.462,137.487C102.521,140.182 105.269,143.327 107.731,146.898C110.672,151.164 111.229,155.488 110.47,160.572C109.969,163.928 109.583,166.265 109.242,167.569C107.716,173.407 97.115,201.524 95.02,207.083L94.765,207.757L94.603,207.975C92.726,212.16 83.141,233.538 78.734,242.806C76.994,246.464 75.4,250.349 73.957,254.462ZM94.776,207.743L94.824,207.622C98.307,199.266 94.776,207.743 94.776,207.743Z"></path>
        </g>
        <g transform="matrix(0.106871,0,0,0.106871,-43.296054,-66.361455)">
            <path d="M33.36,59.55C34.553,58.537 36.28,58.567 38.54,59.64C45.887,64.927 53.248,70.154 60.62,75.33C72.209,83.466 84.753,89.602 98.26,93.72C101.05,94.57 104.64,95.22 107.79,96.15C113.997,97.31 121.4,98.094 130,98.5C140.187,98.981 149.325,96.121 157.42,89.93C167.048,82.567 175.248,73.189 182.49,63.74C193.567,49.288 203.023,36.603 215.2,25.95C217.821,23.657 220.436,21.952 223.05,20.84C225.499,19.798 228.707,20.42 228.29,23.73C227.817,27.49 225.348,31.559 222.95,34.96C206.048,58.931 192.776,78.053 181.97,100.21C177.366,109.651 176.166,120.413 178.37,132.5C181.603,150.229 186.168,171.74 187.76,191.31C189.757,215.857 189.602,239.507 187.28,262.26C185.871,276.07 183.33,291.48 178.49,305.32L175.03,313.69C173.47,317.877 171.307,319.913 168.54,319.8C164.93,317.78 164.909,313.81 164.97,310.03C165.069,303.857 165.481,297.19 166.21,290.03C167.226,280.05 167.725,268.09 167.65,254.15C167.644,253.11 167.315,246.457 166.66,234.19C166.331,228.03 165.255,219.971 164.49,215.52C163.792,211.461 162.468,207.036 160.52,202.24C158.915,198.289 156.483,195.58 153.21,194.12L148.73,194.2C145.16,195.49 142.01,198.6 139.6,201.6L126.85,220.38C126.79,220.98 126.453,221.687 125.84,222.5L115.67,241.02C110.777,250.453 105.433,259.54 99.64,268.28C97.133,271.993 94.183,274.997 90.79,277.29C81.48,282.16 83.67,270.56 84.92,266.19C86.727,259.87 88.879,254.079 91.38,248.82C96.317,238.439 107.7,212.984 107.706,212.98C107.715,212.973 107.731,212.978 107.742,212.992C107.746,212.998 107.749,213.004 107.75,213.01C107.75,213.023 121.035,177.823 122.79,171.11C123.203,169.53 123.713,166.707 124.32,162.64C125.639,153.81 124.369,146.361 119.26,138.95C116.126,134.404 112.615,130.412 108.72,126.98C100.583,119.81 91.654,113.579 81.94,108.28C69.821,101.669 26.04,77.64 33.36,59.55ZM113.26,36.86C119.593,35.359 127.317,38.377 133.53,44.78C139.421,50.853 143.182,59.159 143.53,66.87C143.72,71.17 142.84,75.047 140.99,78.06C138.041,82.869 132.859,85.087 126.87,84.1C121.806,83.266 116.567,80.202 112.21,75.53C105.446,68.289 101.773,58.212 102.84,49.82C103.705,43.02 107.577,38.204 113.26,36.86Z"></path>
        </g>
    </g></svg></g></g></svg></g><g id="dark-icon"><svg xmlns="http://www.w3.org/2000/svg" version="1.1" xmlns:xlink="http://www.w3.org/1999/xlink" width="1000" height="1000"><g clip-path="url(#SvgjsClipPath1057)"><rect width="1000" height="1000" fill="#ffffff"></rect><g transform="matrix(7.8125,0,0,7.8125,0,0)"><svg xmlns="http://www.w3.org/2000/svg" version="1.1" xmlns:xlink="http://www.w3.org/1999/xlink" width="128" height="128" viewBox="0 0 128 128" xml:space="preserve" xmlns:serif="http://www.serif.com/" style="fill-rule:evenodd;clip-rule:evenodd;stroke-linejoin:round;stroke-miterlimit:2;"><g transform="matrix(4,0,0,4,178.721291,256.734397)">
        <g transform="matrix(0.106871,0,0,0.106871,-43.296054,-66.361455)">
            <path d="M95.878,78.151C96.061,78.069 96.244,77.988 96.427,77.906C96.551,78.101 96.676,78.295 96.803,78.488C96.494,78.377 96.186,78.265 95.878,78.151ZM157.435,71.065L157.667,71.114C157.581,71.199 157.495,71.284 157.409,71.369C157.418,71.268 157.427,71.167 157.435,71.065ZM202.263,91.766C225.095,109.986 238.972,137.321 240.77,166.72C241.801,183.58 239.048,199.504 232.5,214.49C225.478,230.562 215.377,244.029 202.023,254.614C203.623,233.841 203.523,212.361 201.717,190.174C200.088,170.148 195.455,148.13 192.146,129.988C190.534,121.148 191.189,113.253 194.556,106.348C196.989,101.359 199.554,96.531 202.263,91.766ZM153.222,275.817C139.668,277.87 126.194,277.178 112.774,273.789C118.271,265.336 123.349,256.618 128.034,247.596L138.115,229.24L137.021,230.931L139.358,226.887L149.282,212.269C149.909,214.234 150.382,216.107 150.689,217.892C151.387,221.956 152.376,229.313 152.676,234.937C153.31,246.791 153.641,253.22 153.647,254.225C153.689,262.078 153.545,269.276 153.222,275.817ZM73.957,254.462C58.618,241.991 47.732,226.83 41.3,208.98C34.653,190.534 33.174,171.843 36.86,152.91C39.934,137.12 46.467,122.65 56.387,109.438C64.147,114.434 71.236,118.392 75.234,120.573C84.021,125.367 92.101,131.001 99.462,137.487C102.521,140.182 105.269,143.327 107.731,146.898C110.672,151.164 111.229,155.488 110.47,160.572C109.969,163.928 109.583,166.265 109.242,167.569C107.716,173.407 97.115,201.524 95.02,207.083L94.765,207.757L94.603,207.975C92.726,212.16 83.141,233.538 78.734,242.806C76.994,246.464 75.4,250.349 73.957,254.462ZM94.776,207.743L94.824,207.622C98.307,199.266 94.776,207.743 94.776,207.743Z"></path>
        </g>
        <g transform="matrix(0.106871,0,0,0.106871,-43.296054,-66.361455)">
            <path d="M33.36,59.55C34.553,58.537 36.28,58.567 38.54,59.64C45.887,64.927 53.248,70.154 60.62,75.33C72.209,83.466 84.753,89.602 98.26,93.72C101.05,94.57 104.64,95.22 107.79,96.15C113.997,97.31 121.4,98.094 130,98.5C140.187,98.981 149.325,96.121 157.42,89.93C167.048,82.567 175.248,73.189 182.49,63.74C193.567,49.288 203.023,36.603 215.2,25.95C217.821,23.657 220.436,21.952 223.05,20.84C225.499,19.798 228.707,20.42 228.29,23.73C227.817,27.49 225.348,31.559 222.95,34.96C206.048,58.931 192.776,78.053 181.97,100.21C177.366,109.651 176.166,120.413 178.37,132.5C181.603,150.229 186.168,171.74 187.76,191.31C189.757,215.857 189.602,239.507 187.28,262.26C185.871,276.07 183.33,291.48 178.49,305.32L175.03,313.69C173.47,317.877 171.307,319.913 168.54,319.8C164.93,317.78 164.909,313.81 164.97,310.03C165.069,303.857 165.481,297.19 166.21,290.03C167.226,280.05 167.725,268.09 167.65,254.15C167.644,253.11 167.315,246.457 166.66,234.19C166.331,228.03 165.255,219.971 164.49,215.52C163.792,211.461 162.468,207.036 160.52,202.24C158.915,198.289 156.483,195.58 153.21,194.12L148.73,194.2C145.16,195.49 142.01,198.6 139.6,201.6L126.85,220.38C126.79,220.98 126.453,221.687 125.84,222.5L115.67,241.02C110.777,250.453 105.433,259.54 99.64,268.28C97.133,271.993 94.183,274.997 90.79,277.29C81.48,282.16 83.67,270.56 84.92,266.19C86.727,259.87 88.879,254.079 91.38,248.82C96.317,238.439 107.7,212.984 107.706,212.98C107.715,212.973 107.731,212.978 107.742,212.992C107.746,212.998 107.749,213.004 107.75,213.01C107.75,213.023 121.035,177.823 122.79,171.11C123.203,169.53 123.713,166.707 124.32,162.64C125.639,153.81 124.369,146.361 119.26,138.95C116.126,134.404 112.615,130.412 108.72,126.98C100.583,119.81 91.654,113.579 81.94,108.28C69.821,101.669 26.04,77.64 33.36,59.55ZM113.26,36.86C119.593,35.359 127.317,38.377 133.53,44.78C139.421,50.853 143.182,59.159 143.53,66.87C143.72,71.17 142.84,75.047 140.99,78.06C138.041,82.869 132.859,85.087 126.87,84.1C121.806,83.266 116.567,80.202 112.21,75.53C105.446,68.289 101.773,58.212 102.84,49.82C103.705,43.02 107.577,38.204 113.26,36.86Z"></path>
        </g>
    </g></svg></g></g><defs><clipPath id="SvgjsClipPath1057"><rect width="1000" height="1000" x="0" y="0" rx="350" ry="350"></rect></clipPath></defs></svg></g></svg>