<?xml version="1.0" encoding="UTF-8" standalone="no"?><!DOCTYPE svg PUBLIC "-//W3C//DTD SVG 1.1//EN" "http://www.w3.org/Graphics/SVG/1.1/DTD/svg11.dtd"><svg width="100%" height="100%" viewBox="0 0 245 68" version="1.1" xmlns="http://www.w3.org/2000/svg" xmlns:xlink="http://www.w3.org/1999/xlink" xml:space="preserve" xmlns:serif="http://www.serif.com/" style="fill-rule:evenodd;clip-rule:evenodd;stroke-linejoin:round;stroke-miterlimit:2;"><g fill="#f0f0f5"><path d="M244.779,9.372l0,57.787l-244.779,0l0,-57.787l244.779,0Zm-1.4,1.4l-241.979,-0l-0,54.987l241.979,0l0,-54.987Z"/><path d="M244.779,15.358l0,51.801l-244.779,0l0,-30.154c29.073,21.087 71.817,31.88 117.789,26.579c46.825,-5.4 103.64,-20.312 126.991,-48.226Zm-52.875,46.655l0.921,0c0.054,-0.171 0.112,-0.343 0.175,-0.516c0.062,-0.173 0.123,-0.345 0.183,-0.516l1.853,0c0.058,0.171 0.119,0.343 0.181,0.516c0.062,0.173 0.121,0.345 0.176,0.516l0.952,0c-0.17,-0.482 -0.332,-0.928 -0.486,-1.338c-0.154,-0.41 -0.302,-0.796 -0.445,-1.157c-0.143,-0.361 -0.286,-0.707 -0.43,-1.038c-0.144,-0.331 -0.29,-0.655 -0.44,-0.971l-0.84,0c-0.203,0.421 -0.398,0.856 -0.587,1.304c-0.189,0.448 -0.381,0.933 -0.578,1.455c-0.197,0.522 -0.409,1.104 -0.636,1.745Zm1.492,-1.744c0.072,-0.2 0.142,-0.393 0.212,-0.577c0.07,-0.184 0.136,-0.355 0.199,-0.514c0.063,-0.158 0.119,-0.302 0.169,-0.431c0.05,-0.129 0.092,-0.24 0.127,-0.332c0.039,0.092 0.084,0.203 0.136,0.332l0.171,0.431c0.063,0.158 0.128,0.329 0.197,0.514c0.068,0.184 0.139,0.376 0.211,0.577l-1.422,0Zm3.46,2.946l0.848,0l0,-1.311c0.101,0.05 0.215,0.092 0.342,0.126c0.127,0.034 0.267,0.051 0.42,0.051c0.325,0 0.599,-0.075 0.821,-0.224c0.222,-0.149 0.391,-0.357 0.507,-0.623c0.116,-0.266 0.174,-0.573 0.174,-0.922c0,-0.364 -0.07,-0.68 -0.21,-0.947c-0.14,-0.267 -0.341,-0.473 -0.602,-0.617c-0.261,-0.144 -0.575,-0.216 -0.941,-0.216c-0.165,0 -0.331,0.009 -0.498,0.027c-0.167,0.018 -0.325,0.041 -0.474,0.071c-0.148,0.029 -0.277,0.061 -0.387,0.094l0,4.491Zm1.459,-1.857c-0.121,0 -0.238,-0.018 -0.349,-0.054c-0.111,-0.036 -0.199,-0.075 -0.262,-0.119l0,-1.882c0.051,-0.011 0.119,-0.021 0.206,-0.031c0.086,-0.01 0.186,-0.015 0.298,-0.015c0.192,0 0.353,0.044 0.485,0.132c0.132,0.088 0.232,0.212 0.301,0.372c0.069,0.16 0.104,0.35 0.104,0.57c0,0.163 -0.015,0.307 -0.046,0.432c-0.03,0.126 -0.078,0.233 -0.143,0.322c-0.065,0.089 -0.146,0.156 -0.244,0.202c-0.097,0.046 -0.214,0.069 -0.351,0.069Zm33.745,0.726c0.335,0 0.624,-0.02 0.868,-0.061c0.244,-0.041 0.429,-0.075 0.556,-0.103l0,-2.039c0,-0.275 -0.043,-0.515 -0.13,-0.72c-0.087,-0.205 -0.234,-0.363 -0.441,-0.475c-0.207,-0.112 -0.493,-0.167 -0.856,-0.167c-0.223,0 -0.434,0.018 -0.631,0.053c-0.198,0.035 -0.349,0.07 -0.453,0.105l0.109,0.689c0.103,-0.038 0.23,-0.07 0.382,-0.097c0.152,-0.027 0.319,-0.04 0.502,-0.04c0.181,0 0.322,0.028 0.423,0.084c0.101,0.056 0.173,0.131 0.215,0.225c0.042,0.094 0.063,0.202 0.063,0.323l0,0.117c-0.054,-0.017 -0.135,-0.033 -0.241,-0.046c-0.107,-0.014 -0.222,-0.02 -0.347,-0.02c-0.252,0 -0.488,0.034 -0.708,0.102c-0.219,0.068 -0.395,0.179 -0.528,0.335c-0.133,0.155 -0.199,0.365 -0.199,0.628c0,0.272 0.059,0.489 0.177,0.652c0.118,0.163 0.284,0.279 0.497,0.35c0.213,0.071 0.461,0.106 0.743,0.106Zm0.067,-0.665c-0.197,0 -0.353,-0.034 -0.467,-0.102c-0.114,-0.068 -0.171,-0.189 -0.171,-0.363c0,-0.127 0.035,-0.223 0.105,-0.288c0.07,-0.065 0.16,-0.109 0.271,-0.133c0.111,-0.024 0.229,-0.036 0.354,-0.036c0.09,0 0.177,0.006 0.262,0.018c0.085,0.012 0.147,0.024 0.187,0.036l0,0.834c-0.06,0.011 -0.137,0.019 -0.232,0.025c-0.095,0.006 -0.198,0.009 -0.307,0.009Zm-17.584,-0.982l3.25,0l0,-0.71l-3.25,0l0,0.71Zm7.777,1.045l0.904,-0.91l0.908,0.91l0.497,-0.496l-0.91,-0.903l0.91,-0.908l-0.497,-0.497l-0.908,0.91l-0.904,-0.91l-0.496,0.497l0.91,0.908l-0.91,0.903l0.496,0.496Zm-11.022,0.53l2.912,0l0,-0.715l-1.978,0c0.013,-0.075 0.062,-0.167 0.146,-0.277c0.084,-0.11 0.183,-0.223 0.294,-0.339c0.112,-0.116 0.216,-0.22 0.312,-0.312c0.172,-0.164 0.342,-0.333 0.509,-0.509c0.167,-0.175 0.305,-0.362 0.414,-0.56c0.109,-0.198 0.163,-0.406 0.163,-0.625c0,-0.394 -0.118,-0.705 -0.355,-0.931c-0.237,-0.226 -0.609,-0.34 -1.117,-0.34c-0.196,0 -0.382,0.028 -0.557,0.083c-0.175,0.055 -0.336,0.128 -0.48,0.217c-0.145,0.089 -0.272,0.186 -0.381,0.29l0.424,0.59c0.039,-0.039 0.104,-0.095 0.195,-0.167c0.091,-0.072 0.203,-0.137 0.335,-0.194c0.132,-0.057 0.277,-0.086 0.435,-0.086c0.18,0 0.33,0.045 0.45,0.135c0.12,0.09 0.18,0.243 0.18,0.458c0,0.132 -0.034,0.258 -0.103,0.376c-0.069,0.119 -0.161,0.237 -0.277,0.355c-0.116,0.118 -0.244,0.245 -0.385,0.38c-0.177,0.171 -0.353,0.348 -0.531,0.53c-0.177,0.182 -0.324,0.381 -0.441,0.598c-0.117,0.217 -0.175,0.465 -0.175,0.744l0.001,0.145c0.001,0.063 0.004,0.114 0.011,0.153Zm7.938,0.098c0.408,0 0.742,-0.061 1.001,-0.183c0.259,-0.122 0.45,-0.29 0.574,-0.503c0.124,-0.213 0.186,-0.456 0.186,-0.726c0,-0.193 -0.033,-0.363 -0.098,-0.512c-0.065,-0.148 -0.157,-0.275 -0.275,-0.379c-0.119,-0.104 -0.256,-0.184 -0.414,-0.24c0.18,-0.083 0.324,-0.209 0.433,-0.376c0.109,-0.167 0.163,-0.349 0.163,-0.545c0,-0.238 -0.053,-0.451 -0.158,-0.637c-0.105,-0.186 -0.267,-0.333 -0.484,-0.441c-0.218,-0.108 -0.498,-0.162 -0.842,-0.162c-0.277,0 -0.525,0.044 -0.743,0.133c-0.218,0.089 -0.391,0.174 -0.519,0.255l0.309,0.626c0.119,-0.077 0.255,-0.145 0.407,-0.203c0.152,-0.058 0.326,-0.088 0.522,-0.088c0.113,0 0.218,0.019 0.317,0.058c0.099,0.038 0.18,0.097 0.243,0.176c0.063,0.079 0.095,0.184 0.095,0.315c0,0.161 -0.039,0.287 -0.118,0.376c-0.079,0.089 -0.18,0.152 -0.303,0.188c-0.123,0.036 -0.253,0.054 -0.388,0.054l-0.367,0l0,0.684l0.307,0c0.195,0 0.372,0.022 0.53,0.065c0.158,0.043 0.285,0.116 0.38,0.217c0.095,0.101 0.143,0.242 0.143,0.423c0,0.141 -0.032,0.264 -0.097,0.37c-0.064,0.106 -0.165,0.186 -0.302,0.242c-0.137,0.056 -0.313,0.084 -0.529,0.084c-0.258,0 -0.474,-0.028 -0.65,-0.083c-0.175,-0.055 -0.313,-0.105 -0.413,-0.149l-0.172,0.712c0.069,0.031 0.172,0.067 0.309,0.106c0.137,0.039 0.289,0.073 0.457,0.102c0.168,0.029 0.333,0.043 0.496,0.043Zm9.357,-0.015c0.166,0 0.332,-0.009 0.499,-0.027c0.167,-0.018 0.326,-0.042 0.476,-0.072c0.151,-0.03 0.278,-0.061 0.383,-0.093l0,-4.935l-0.847,0.138l0,1.605c-0.101,-0.05 -0.211,-0.092 -0.33,-0.126c-0.119,-0.034 -0.255,-0.051 -0.408,-0.051c-0.321,0 -0.595,0.073 -0.822,0.219c-0.228,0.146 -0.402,0.353 -0.522,0.621c-0.121,0.268 -0.181,0.584 -0.181,0.951c0,0.364 0.07,0.679 0.21,0.944c0.14,0.265 0.341,0.469 0.602,0.612c0.261,0.142 0.574,0.214 0.939,0.214Zm0.006,-0.728c-0.187,0 -0.348,-0.044 -0.481,-0.132c-0.133,-0.088 -0.235,-0.212 -0.305,-0.374c-0.07,-0.161 -0.105,-0.352 -0.105,-0.572c0,-0.162 0.015,-0.308 0.046,-0.436c0.03,-0.128 0.078,-0.236 0.143,-0.325c0.065,-0.089 0.146,-0.156 0.244,-0.202c0.097,-0.046 0.214,-0.069 0.351,-0.069c0.122,0 0.239,0.018 0.35,0.053c0.111,0.035 0.199,0.075 0.262,0.119l0,1.891c-0.052,0.011 -0.121,0.021 -0.207,0.031c-0.086,0.01 -0.186,0.015 -0.298,0.015Zm8.796,0.708l0.12,-0.7c-0.218,-0.02 -0.36,-0.074 -0.426,-0.164c-0.066,-0.09 -0.099,-0.226 -0.099,-0.408l0,-3.835l-0.848,0.138l0,3.851c0,0.236 0.035,0.436 0.105,0.6c0.07,0.164 0.196,0.289 0.378,0.375c0.182,0.087 0.439,0.134 0.77,0.143Zm-2.597,-4.08c0.143,0 0.265,-0.047 0.367,-0.14c0.102,-0.093 0.153,-0.22 0.153,-0.38c0,-0.16 -0.051,-0.286 -0.153,-0.377c-0.102,-0.091 -0.224,-0.137 -0.367,-0.137c-0.143,0 -0.265,0.046 -0.367,0.137c-0.102,0.091 -0.153,0.217 -0.153,0.377c0,0.16 0.051,0.287 0.153,0.38c0.102,0.093 0.224,0.14 0.367,0.14Zm-0.423,4.017l0.845,0l0,-3.406l-0.845,0l0,3.406Zm-27.69,1.207c0.246,0 0.451,-0.037 0.617,-0.112c0.165,-0.075 0.31,-0.194 0.435,-0.357c0.125,-0.163 0.246,-0.373 0.364,-0.63c0.163,-0.356 0.316,-0.721 0.46,-1.094c0.144,-0.373 0.282,-0.762 0.413,-1.166c0.131,-0.404 0.257,-0.822 0.379,-1.255l-0.873,0c-0.063,0.259 -0.132,0.529 -0.209,0.811c-0.076,0.282 -0.156,0.56 -0.239,0.834c-0.083,0.275 -0.169,0.533 -0.258,0.774c-0.076,-0.18 -0.152,-0.373 -0.23,-0.581c-0.077,-0.207 -0.152,-0.418 -0.223,-0.632c-0.071,-0.214 -0.137,-0.424 -0.199,-0.63c-0.062,-0.206 -0.115,-0.398 -0.159,-0.576l-0.899,0c0.121,0.43 0.253,0.841 0.395,1.232c0.142,0.391 0.289,0.759 0.441,1.105c0.152,0.346 0.307,0.67 0.464,0.973c-0.051,0.129 -0.108,0.238 -0.17,0.326c-0.062,0.088 -0.137,0.154 -0.223,0.197c-0.087,0.043 -0.194,0.064 -0.322,0.064c-0.086,0 -0.168,-0.008 -0.247,-0.024c-0.079,-0.016 -0.159,-0.038 -0.24,-0.067l-0.151,0.679c0.069,0.03 0.164,0.059 0.284,0.087c0.12,0.028 0.25,0.041 0.391,0.041Zm-0.853,-1.144l0.12,-0.7c-0.218,-0.02 -0.36,-0.074 -0.426,-0.164c-0.066,-0.09 -0.099,-0.226 -0.099,-0.408l0,-3.835l-0.848,0.138l0,3.851c0,0.236 0.035,0.436 0.105,0.6c0.07,0.164 0.196,0.289 0.378,0.375c0.182,0.087 0.439,0.134 0.77,0.143Zm-5.114,1.139l0.848,0l0,-1.311c0.101,0.05 0.215,0.092 0.342,0.126c0.127,0.034 0.267,0.051 0.42,0.051c0.325,0 0.599,-0.075 0.821,-0.224c0.222,-0.149 0.391,-0.357 0.507,-0.623c0.116,-0.266 0.174,-0.573 0.174,-0.922c0,-0.364 -0.07,-0.68 -0.21,-0.947c-0.14,-0.267 -0.341,-0.473 -0.602,-0.617c-0.261,-0.144 -0.575,-0.216 -0.941,-0.216c-0.165,0 -0.331,0.009 -0.498,0.027c-0.167,0.018 -0.325,0.041 -0.474,0.071c-0.148,0.029 -0.277,0.061 -0.387,0.094l0,4.491Zm1.459,-1.857c-0.121,0 -0.238,-0.018 -0.349,-0.054c-0.111,-0.036 -0.199,-0.075 -0.262,-0.119l0,-1.882c0.051,-0.011 0.119,-0.021 0.206,-0.031c0.086,-0.01 0.186,-0.015 0.298,-0.015c0.192,0 0.353,0.044 0.485,0.132c0.132,0.088 0.232,0.212 0.301,0.372c0.069,0.16 0.104,0.35 0.104,0.57c0,0.163 -0.015,0.307 -0.045,0.432c-0.03,0.126 -0.078,0.233 -0.143,0.322c-0.065,0.089 -0.146,0.156 -0.244,0.202c-0.098,0.046 -0.215,0.069 -0.351,0.069Zm36.07,1.862c0.246,0 0.451,-0.037 0.617,-0.112c0.165,-0.075 0.31,-0.194 0.435,-0.357c0.125,-0.163 0.246,-0.373 0.364,-0.63c0.163,-0.356 0.316,-0.721 0.46,-1.094c0.144,-0.373 0.282,-0.762 0.413,-1.166c0.131,-0.404 0.257,-0.822 0.379,-1.255l-0.873,0c-0.063,0.259 -0.132,0.529 -0.209,0.811c-0.076,0.282 -0.156,0.56 -0.239,0.834c-0.083,0.275 -0.169,0.533 -0.258,0.774c-0.076,-0.18 -0.152,-0.373 -0.23,-0.581c-0.077,-0.207 -0.152,-0.418 -0.223,-0.632c-0.071,-0.214 -0.137,-0.424 -0.199,-0.63c-0.062,-0.206 -0.115,-0.398 -0.159,-0.576l-0.899,0c0.121,0.43 0.253,0.841 0.395,1.232c0.142,0.391 0.289,0.759 0.441,1.105c0.152,0.346 0.307,0.67 0.464,0.973c-0.051,0.129 -0.108,0.238 -0.17,0.326c-0.062,0.088 -0.137,0.154 -0.223,0.197c-0.087,0.043 -0.194,0.064 -0.322,0.064c-0.086,0 -0.168,-0.008 -0.247,-0.024c-0.079,-0.016 -0.159,-0.038 -0.24,-0.067l-0.151,0.679c0.069,0.03 0.164,0.059 0.284,0.087c0.12,0.028 0.25,0.041 0.391,0.041Z"/><path d="M232.779,0l12,9.443l-244.779,0l12,-9.443l220.779,0Z"/><path d="M52.22,33.396l4.26,0c2.48,0 3.4,-0.24 4.38,-1.16c0.8,-0.74 1.24,-1.78 1.24,-2.92c0,-1.56 -0.76,-2.64 -2.22,-3.12c1,-0.58 1.56,-1.54 1.56,-2.68c0,-1.1 -0.5,-2.18 -1.28,-2.78c-0.72,-0.56 -1.62,-0.74 -3.8,-0.74l-4.14,0l0,13.4Zm3.28,-8.32l0,-2.06l1.22,0c0.58,0 0.74,0.02 0.98,0.16c0.28,0.16 0.46,0.48 0.46,0.84c0,0.74 -0.46,1.06 -1.44,1.06l-1.22,0Zm0,5.3l0,-2.44l1.62,0c0.68,0 0.96,0.06 1.24,0.24c0.28,0.2 0.46,0.56 0.46,0.92c0,0.84 -0.6,1.28 -1.7,1.28l-1.62,0Z" style="fill-rule:nonzero;"/><path d="M70.6,33.396l2.84,0l0,-10.06l-2.84,0l0,1.06c-0.56,-0.96 -1.52,-1.42 -3.04,-1.42c-3.04,0 -5.18,2.22 -5.18,5.38c0,3.18 2.08,5.38 5.1,5.38c1.62,0 2.64,-0.46 3.12,-1.42l0,1.08Zm-5.2,-5.06c0,-1.42 1.1,-2.52 2.5,-2.52c1.46,0 2.54,1.08 2.54,2.54c0,1.48 -1.06,2.56 -2.52,2.56c-1.44,0 -2.52,-1.1 -2.52,-2.58Z" style="fill-rule:nonzero;"/><rect x="74.46" y="19.996" width="3.02" height="13.4" style="fill-rule:nonzero;"/><path d="M78.14,28.336c0,3.14 2.26,5.4 5.4,5.4c1.58,0 2.9,-0.5 3.88,-1.5c1,-1.02 1.58,-2.42 1.58,-3.88c0,-1.26 -0.44,-2.48 -1.22,-3.46c-1.04,-1.26 -2.44,-1.9 -4.22,-1.9c-1.5,0 -2.92,0.56 -3.84,1.5c-1,1 -1.58,2.42 -1.58,3.84Zm3.02,0c0,-1.4 1.08,-2.52 2.42,-2.52c1.32,0 2.4,1.14 2.4,2.54c0,1.46 -1.04,2.56 -2.4,2.56c-1.38,0 -2.42,-1.1 -2.42,-2.58Z" style="fill-rule:nonzero;"/><rect x="89.68" y="19.996" width="3.02" height="13.4" style="fill-rule:nonzero;"/><path d="M101.58,33.396l2.84,0l0,-10.06l-2.84,0l0,1.06c-0.56,-0.96 -1.52,-1.42 -3.04,-1.42c-3.04,0 -5.18,2.22 -5.18,5.38c0,3.18 2.08,5.38 5.1,5.38c1.62,0 2.64,-0.46 3.12,-1.42l0,1.08Zm-5.2,-5.06c0,-1.42 1.1,-2.52 2.5,-2.52c1.46,0 2.54,1.08 2.54,2.54c0,1.48 -1.06,2.56 -2.52,2.56c-1.44,0 -2.52,-1.1 -2.52,-2.58Z" style="fill-rule:nonzero;"/><path d="M108.513,21.111c0,0.983 -0.239,1.758 -0.718,2.324c-0.479,0.566 -1.151,0.934 -2.017,1.104l0,-1.025c0.638,-0.202 1.077,-0.544 1.318,-1.025c0.13,-0.286 0.186,-0.576 0.166,-0.869l-1.533,0l0,-2.568l2.783,0l0,2.061Z" style="fill-rule:nonzero;"/><path d="M117.177,26.156c-0.08,-0.84 -0.24,-1.28 -0.66,-1.82c-0.68,-0.86 -1.76,-1.34 -3.06,-1.34c-2.26,0 -4.06,1.46 -4.06,3.32c0,1.3 0.9,2.46 2.14,2.78c2.3,0.6 2.3,0.6 2.68,0.9c0.16,0.14 0.26,0.36 0.26,0.56c0,0.44 -0.46,0.78 -1.04,0.78c-0.66,0 -1.06,-0.32 -1.14,-0.92l-3,0c0.1,1.04 0.38,1.62 1.04,2.24c0.78,0.72 1.8,1.1 2.98,1.1c2.38,0 4.18,-1.48 4.18,-3.42c0,-0.86 -0.32,-1.58 -0.96,-2.12c-0.5,-0.42 -1.02,-0.64 -2.56,-1.06c-1.06,-0.28 -1.56,-0.64 -1.56,-1.1c0,-0.38 0.38,-0.64 0.96,-0.64c0.54,0 0.8,0.22 0.86,0.74l2.94,0Z" style="fill-rule:nonzero;"/><path d="M122.29,33.396l3.39,0l0,-4.341l1.53,0c1.943,0 3.121,-0.351 4.031,-1.199c0.93,-0.868 1.468,-2.191 1.468,-3.597c0,-1.488 -0.599,-2.832 -1.633,-3.679c-0.909,-0.744 -2.046,-1.033 -4.258,-1.033l-4.527,0l0,13.849Zm3.39,-7.462l0,-3.266l1.302,0c0.847,0 1.364,0.103 1.695,0.331c0.393,0.248 0.641,0.785 0.641,1.302c0,0.475 -0.207,0.951 -0.537,1.24c-0.351,0.289 -0.827,0.393 -1.674,0.393l-1.426,0Z" style="fill-rule:nonzero;"/><path d="M133.121,33.396l3.08,0l0,-5.746c0,-1.323 0.661,-1.84 2.46,-1.881l0,-3.121l-0.083,0c-0.393,0 -1.013,0.124 -1.406,0.31c-0.496,0.248 -0.765,0.517 -1.116,1.137l0,-1.096l-2.935,0l0,10.397Z" style="fill-rule:nonzero;"/><path d="M138.33,28.166c0,3.245 2.336,5.581 5.581,5.581c1.633,0 2.997,-0.517 4.01,-1.55c1.033,-1.054 1.633,-2.501 1.633,-4.01c0,-1.302 -0.455,-2.563 -1.261,-3.576c-1.075,-1.302 -2.522,-1.964 -4.361,-1.964c-1.55,0 -3.018,0.579 -3.969,1.55c-1.033,1.033 -1.633,2.501 -1.633,3.969Zm3.121,0c0,-1.447 1.116,-2.604 2.501,-2.604c1.364,0 2.48,1.178 2.48,2.625c0,1.509 -1.075,2.646 -2.48,2.646c-1.426,0 -2.501,-1.137 -2.501,-2.666Z" style="fill-rule:nonzero;"/><path d="M149.863,34.367c0.289,2.191 2.356,3.659 5.167,3.659c2.253,0 4.258,-0.909 5.25,-2.377c0.558,-0.827 0.661,-1.385 0.661,-3.514l0,-9.136l-2.935,0l0,0.971c-0.765,-0.909 -1.736,-1.323 -3.059,-1.323c-3.038,0 -5.291,2.398 -5.291,5.622c0,3.038 2.232,5.478 5.023,5.478c1.344,0 2.687,-0.641 3.121,-1.488l0,0.331c0,0.847 -0.145,1.406 -0.496,1.86c-0.455,0.599 -1.22,0.951 -2.026,0.951c-0.909,0 -1.55,-0.351 -1.84,-1.033l-3.576,0Zm2.914,-6.222c0,-1.447 1.116,-2.584 2.522,-2.584c1.468,0 2.522,1.116 2.522,2.687c0,1.509 -1.054,2.584 -2.542,2.584c-1.426,0 -2.501,-1.137 -2.501,-2.687Z" style="fill-rule:nonzero;"/><path d="M161.976,33.396l3.08,0l0,-5.746c0,-1.323 0.661,-1.84 2.46,-1.881l0,-3.121l-0.083,0c-0.393,0 -1.013,0.124 -1.406,0.31c-0.496,0.248 -0.765,0.517 -1.116,1.137l0,-1.096l-2.935,0l0,10.397Z" style="fill-rule:nonzero;"/><path d="M175.68,33.396l2.935,0l0,-10.397l-2.935,0l0,1.096c-0.579,-0.992 -1.571,-1.468 -3.142,-1.468c-3.142,0 -5.353,2.294 -5.353,5.56c0,3.287 2.15,5.56 5.271,5.56c1.674,0 2.728,-0.475 3.224,-1.468l0,1.116Zm-5.374,-5.229c0,-1.468 1.137,-2.604 2.584,-2.604c1.509,0 2.625,1.116 2.625,2.625c0,1.53 -1.096,2.646 -2.604,2.646c-1.488,0 -2.604,-1.137 -2.604,-2.666Z" style="fill-rule:nonzero;"/><path d="M179.669,33.396l3.121,0l0,-5.664c0,-1.406 0.599,-2.17 1.736,-2.17c1.054,0 1.592,0.723 1.592,2.17l0,5.664l3.121,0l0,-5.664c0,-0.827 0.124,-1.282 0.455,-1.654c0.289,-0.31 0.785,-0.517 1.24,-0.517c0.475,0 0.971,0.227 1.199,0.558c0.269,0.372 0.351,0.785 0.351,1.757l0,5.519l3.121,0l0,-5.664c0,-2.398 -0.207,-3.162 -1.137,-4.051c-0.723,-0.682 -1.633,-1.033 -2.708,-1.033c-1.406,0 -2.542,0.641 -3.287,1.86c-0.661,-1.24 -1.674,-1.86 -3.018,-1.86c-1.282,0 -2.15,0.434 -2.852,1.447l0,-1.096l-2.935,0l0,10.397Z" style="fill-rule:nonzero;"/><path d="M28.601,20.895c0.024,-0.011 0.047,-0.021 0.071,-0.032c0.016,0.025 0.032,0.05 0.048,0.075c-0.04,-0.014 -0.079,-0.029 -0.119,-0.043Zm7.913,-0.911l0.03,0.006c-0.011,0.011 -0.022,0.022 -0.033,0.033c0.001,-0.013 0.002,-0.026 0.003,-0.039Zm5.762,2.661c2.935,2.342 4.719,5.856 4.95,9.635c0.133,2.167 -0.221,4.214 -1.063,6.14c-0.903,2.066 -2.201,3.797 -3.918,5.157c0.206,-2.67 0.193,-5.431 -0.039,-8.283c-0.209,-2.574 -0.805,-5.404 -1.23,-7.736c-0.207,-1.136 -0.123,-2.151 0.31,-3.039c0.313,-0.641 0.642,-1.262 0.991,-1.874Zm-6.304,23.658c-1.742,0.264 -3.474,0.175 -5.199,-0.261c0.707,-1.087 1.359,-2.207 1.961,-3.367l1.296,-2.359l-0.141,0.217l0.3,-0.52l1.276,-1.879c0.081,0.253 0.141,0.493 0.181,0.723c0.09,0.522 0.217,1.468 0.255,2.191c0.081,1.524 0.124,2.35 0.125,2.479c0.005,1.009 -0.013,1.935 -0.055,2.775Zm-10.189,-2.745c-1.972,-1.603 -3.371,-3.552 -4.198,-5.846c-0.854,-2.371 -1.045,-4.774 -0.571,-7.207c0.395,-2.03 1.235,-3.89 2.51,-5.588c0.998,0.642 1.909,1.151 2.423,1.431c1.13,0.616 2.168,1.34 3.114,2.174c0.393,0.346 0.746,0.751 1.063,1.21c0.378,0.548 0.45,1.104 0.352,1.758c-0.064,0.431 -0.114,0.732 -0.158,0.899c-0.196,0.75 -1.559,4.365 -1.828,5.079l-0.033,0.087l-0.021,0.028c-0.241,0.538 -1.473,3.286 -2.04,4.477c-0.224,0.47 -0.428,0.97 -0.614,1.498Zm2.676,-6.005l0.006,-0.015c0.448,-1.074 -0.006,0.015 -0.006,0.015Z"/><path d="M20.565,18.504c0.153,-0.13 0.375,-0.126 0.666,0.012c0.944,0.68 1.891,1.352 2.838,2.017c1.49,1.046 3.102,1.835 4.838,2.364c0.359,0.109 0.82,0.193 1.225,0.312c0.798,0.149 1.749,0.25 2.855,0.302c1.309,0.062 2.484,-0.306 3.525,-1.102c1.238,-0.946 2.292,-2.152 3.222,-3.366c1.424,-1.858 2.639,-3.488 4.205,-4.858c0.337,-0.295 0.673,-0.514 1.009,-0.657c0.315,-0.134 0.727,-0.054 0.674,0.371c-0.061,0.483 -0.378,1.006 -0.686,1.444c-2.173,3.081 -3.879,5.539 -5.268,8.387c-0.592,1.214 -0.746,2.597 -0.463,4.151c0.416,2.279 1.002,5.044 1.207,7.559c0.257,3.155 0.237,6.195 -0.062,9.12c-0.181,1.775 -0.508,3.756 -1.13,5.535l-0.445,1.076c-0.201,0.538 -0.479,0.8 -0.834,0.785c-0.464,-0.26 -0.467,-0.77 -0.459,-1.256c0.013,-0.794 0.066,-1.65 0.159,-2.571c0.131,-1.283 0.195,-2.82 0.185,-4.612c-0.001,-0.134 -0.043,-0.989 -0.127,-2.566c-0.042,-0.792 -0.181,-1.828 -0.279,-2.4c-0.09,-0.522 -0.26,-1.091 -0.51,-1.707c-0.206,-0.508 -0.519,-0.856 -0.94,-1.044l-0.576,0.01c-0.459,0.166 -0.864,0.566 -1.174,0.951l-1.639,2.414c-0.008,0.077 -0.051,0.168 -0.13,0.273l-1.307,2.381c-0.629,1.213 -1.316,2.381 -2.06,3.504c-0.322,0.477 -0.701,0.863 -1.138,1.158c-1.197,0.626 -0.915,-0.865 -0.755,-1.427c0.232,-0.812 0.509,-1.557 0.83,-2.233c0.635,-1.334 2.098,-4.606 2.098,-4.607c0.001,-0.001 0.003,-0 0.005,0.002c0.001,0.001 0.001,0.002 0.001,0.002c0,0.002 1.708,-4.523 1.933,-5.386c0.053,-0.203 0.119,-0.566 0.197,-1.089c0.17,-1.135 0.006,-2.093 -0.65,-3.045c-0.403,-0.584 -0.854,-1.098 -1.355,-1.539c-1.046,-0.922 -2.194,-1.723 -3.442,-2.404c-1.558,-0.85 -7.185,-3.938 -6.244,-6.264Zm10.27,-2.917c0.814,-0.193 1.807,0.195 2.605,1.018c0.757,0.781 1.241,1.848 1.285,2.839c0.024,0.553 -0.089,1.051 -0.326,1.438c-0.379,0.618 -1.045,0.903 -1.815,0.776c-0.651,-0.107 -1.324,-0.501 -1.884,-1.102c-0.87,-0.931 -1.342,-2.226 -1.204,-3.305c0.111,-0.874 0.609,-1.493 1.339,-1.666Z"/><path d="M117.531,36.519l-0,7.076c-0,1.571 -1.274,2.845 -2.845,2.845l-59.621,0c-1.571,-0 -2.845,-1.274 -2.845,-2.845l0,-7.076l65.311,0Zm-48.007,7.543c0.324,0 0.6,-0.041 0.827,-0.122c0.227,-0.082 0.4,-0.203 0.519,-0.363c0.119,-0.16 0.179,-0.359 0.179,-0.596c0,-0.21 -0.037,-0.385 -0.11,-0.526c-0.073,-0.141 -0.192,-0.264 -0.357,-0.369c-0.165,-0.106 -0.387,-0.21 -0.668,-0.314c-0.16,-0.06 -0.285,-0.113 -0.375,-0.159c-0.09,-0.047 -0.153,-0.096 -0.189,-0.149c-0.036,-0.053 -0.054,-0.114 -0.054,-0.184c0,-0.114 0.049,-0.198 0.146,-0.252c0.097,-0.054 0.232,-0.081 0.403,-0.081c0.195,0 0.363,0.018 0.503,0.053c0.141,0.036 0.264,0.073 0.37,0.113l0.166,-0.723c-0.109,-0.043 -0.261,-0.085 -0.457,-0.125c-0.196,-0.04 -0.408,-0.06 -0.637,-0.06c-0.289,0 -0.538,0.045 -0.746,0.134c-0.208,0.089 -0.369,0.215 -0.482,0.376c-0.113,0.162 -0.17,0.355 -0.17,0.58c0,0.23 0.045,0.416 0.136,0.559c0.09,0.143 0.216,0.26 0.377,0.351c0.161,0.091 0.345,0.177 0.551,0.259c0.159,0.06 0.288,0.115 0.387,0.166c0.099,0.051 0.173,0.103 0.222,0.156c0.049,0.053 0.073,0.116 0.073,0.189c0,0.13 -0.05,0.218 -0.149,0.266c-0.099,0.048 -0.253,0.072 -0.46,0.072c-0.204,0 -0.396,-0.022 -0.576,-0.067c-0.18,-0.045 -0.342,-0.096 -0.488,-0.153l-0.163,0.751c0.078,0.035 0.22,0.08 0.427,0.136c0.207,0.055 0.471,0.083 0.794,0.083Zm-7.875,-0.094l0.913,0l0,-2.893c0.044,-0.015 0.115,-0.03 0.213,-0.045c0.097,-0.015 0.193,-0.023 0.286,-0.023c0.154,0 0.293,0.012 0.416,0.037c0.124,0.025 0.226,0.048 0.306,0.07l0.158,-0.758c-0.065,-0.028 -0.149,-0.051 -0.25,-0.069c-0.102,-0.018 -0.205,-0.033 -0.312,-0.045c-0.106,-0.012 -0.199,-0.017 -0.28,-0.017c-0.309,0 -0.586,0.029 -0.829,0.086c-0.244,0.057 -0.451,0.117 -0.621,0.179l0,3.479Zm4.345,0.094c0.36,0 0.671,-0.081 0.935,-0.242c0.264,-0.162 0.469,-0.387 0.617,-0.677c0.148,-0.29 0.221,-0.628 0.221,-1.014c0,-0.386 -0.076,-0.723 -0.227,-1.011c-0.151,-0.288 -0.36,-0.512 -0.626,-0.672c-0.267,-0.16 -0.573,-0.241 -0.918,-0.241c-0.341,0 -0.646,0.081 -0.916,0.242c-0.27,0.161 -0.481,0.385 -0.633,0.672c-0.152,0.287 -0.229,0.623 -0.229,1.009c0,0.386 0.075,0.724 0.224,1.014c0.149,0.29 0.358,0.516 0.626,0.677c0.268,0.162 0.576,0.242 0.926,0.242Zm-0.001,-0.789c-0.175,0 -0.326,-0.047 -0.452,-0.141c-0.126,-0.094 -0.222,-0.226 -0.289,-0.397c-0.067,-0.171 -0.1,-0.373 -0.1,-0.606c0,-0.233 0.033,-0.435 0.1,-0.604c0.066,-0.169 0.163,-0.3 0.289,-0.392c0.126,-0.092 0.276,-0.138 0.452,-0.138c0.178,0 0.33,0.046 0.453,0.138c0.124,0.092 0.219,0.223 0.286,0.392c0.067,0.169 0.101,0.371 0.101,0.604c0,0.232 -0.034,0.434 -0.101,0.606c-0.067,0.172 -0.162,0.305 -0.286,0.398c-0.124,0.094 -0.275,0.14 -0.453,0.14Zm6.767,0.789c0.324,0 0.6,-0.041 0.827,-0.122c0.227,-0.082 0.4,-0.203 0.519,-0.363c0.119,-0.16 0.178,-0.359 0.178,-0.596c0,-0.21 -0.037,-0.385 -0.11,-0.526c-0.073,-0.141 -0.192,-0.264 -0.357,-0.369c-0.165,-0.106 -0.387,-0.21 -0.669,-0.314c-0.16,-0.06 -0.285,-0.113 -0.374,-0.159c-0.09,-0.047 -0.153,-0.096 -0.189,-0.149c-0.036,-0.053 -0.054,-0.114 -0.054,-0.184c0,-0.114 0.049,-0.198 0.146,-0.252c0.097,-0.054 0.232,-0.081 0.403,-0.081c0.195,0 0.363,0.018 0.503,0.053c0.141,0.036 0.264,0.073 0.37,0.113l0.166,-0.723c-0.108,-0.043 -0.261,-0.085 -0.457,-0.125c-0.196,-0.04 -0.408,-0.06 -0.637,-0.06c-0.289,0 -0.538,0.045 -0.746,0.134c-0.208,0.089 -0.369,0.215 -0.482,0.376c-0.113,0.162 -0.17,0.355 -0.17,0.58c0,0.23 0.045,0.416 0.136,0.559c0.09,0.143 0.216,0.26 0.377,0.351c0.161,0.091 0.345,0.177 0.551,0.259c0.159,0.06 0.288,0.115 0.387,0.166c0.099,0.051 0.173,0.103 0.222,0.156c0.049,0.053 0.073,0.116 0.073,0.189c0,0.13 -0.05,0.218 -0.149,0.266c-0.099,0.048 -0.253,0.072 -0.46,0.072c-0.204,0 -0.396,-0.022 -0.576,-0.067c-0.18,-0.045 -0.342,-0.096 -0.488,-0.153l-0.163,0.751c0.078,0.035 0.221,0.08 0.427,0.136c0.207,0.055 0.471,0.083 0.794,0.083Zm-13.286,0.005c0.373,0 0.696,-0.037 0.969,-0.112c0.272,-0.075 0.476,-0.153 0.61,-0.235l-0.263,-0.772c-0.115,0.057 -0.27,0.117 -0.463,0.178c-0.193,0.062 -0.449,0.093 -0.767,0.093c-0.344,0 -0.624,-0.073 -0.84,-0.221c-0.216,-0.147 -0.374,-0.348 -0.475,-0.603c-0.101,-0.255 -0.151,-0.546 -0.151,-0.872c0,-0.383 0.065,-0.697 0.195,-0.943c0.13,-0.246 0.304,-0.429 0.522,-0.549c0.218,-0.12 0.459,-0.179 0.723,-0.179c0.254,0 0.479,0.029 0.674,0.087c0.195,0.058 0.363,0.126 0.504,0.203l0.28,-0.777c-0.053,-0.034 -0.143,-0.079 -0.271,-0.136c-0.128,-0.057 -0.293,-0.108 -0.493,-0.155c-0.2,-0.047 -0.434,-0.07 -0.703,-0.07c-0.341,0 -0.658,0.056 -0.952,0.167c-0.294,0.111 -0.552,0.275 -0.773,0.492c-0.221,0.216 -0.393,0.482 -0.516,0.797c-0.123,0.315 -0.185,0.674 -0.185,1.076c0,0.539 0.093,0.997 0.28,1.375c0.187,0.377 0.458,0.664 0.814,0.86c0.356,0.196 0.783,0.294 1.281,0.294Zm15.601,-0.1l0.956,0l0,-2.072l1.942,0l0,-0.805l-1.942,0l0,-1.169l2.186,0l0,-0.805l-3.141,0l0,4.851Zm9.77,0l0.992,0c0.058,-0.184 0.121,-0.37 0.188,-0.556c0.067,-0.186 0.133,-0.371 0.197,-0.556l1.995,0c0.063,0.184 0.128,0.37 0.195,0.556c0.067,0.186 0.13,0.371 0.19,0.556l1.025,0c-0.183,-0.519 -0.358,-1 -0.523,-1.441c-0.166,-0.442 -0.325,-0.857 -0.48,-1.246c-0.154,-0.389 -0.308,-0.762 -0.463,-1.118c-0.155,-0.356 -0.312,-0.705 -0.473,-1.046l-0.905,0c-0.218,0.454 -0.429,0.922 -0.632,1.404c-0.203,0.482 -0.41,1.005 -0.622,1.567c-0.212,0.562 -0.44,1.189 -0.685,1.88Zm1.607,-1.878c0.077,-0.216 0.153,-0.423 0.228,-0.621c0.075,-0.198 0.147,-0.383 0.214,-0.553c0.068,-0.17 0.128,-0.325 0.182,-0.465c0.054,-0.139 0.099,-0.259 0.137,-0.358c0.042,0.099 0.091,0.218 0.146,0.358l0.185,0.465c0.068,0.17 0.138,0.355 0.212,0.553c0.074,0.198 0.149,0.405 0.227,0.621l-1.531,0Zm6.652,1.878l0.774,0c0.121,-0.237 0.242,-0.493 0.363,-0.769c0.121,-0.276 0.24,-0.569 0.359,-0.879c0.118,-0.31 0.235,-0.634 0.348,-0.972c0.114,-0.338 0.223,-0.688 0.328,-1.048l-0.94,0c-0.049,0.197 -0.107,0.409 -0.174,0.637c-0.067,0.227 -0.138,0.457 -0.212,0.688c-0.074,0.231 -0.15,0.455 -0.227,0.672c-0.077,0.217 -0.15,0.413 -0.219,0.588c-0.093,-0.234 -0.192,-0.503 -0.298,-0.804c-0.105,-0.302 -0.203,-0.608 -0.295,-0.92c-0.092,-0.311 -0.171,-0.598 -0.239,-0.861l-0.968,0c0.105,0.361 0.214,0.71 0.328,1.048c0.114,0.338 0.23,0.662 0.348,0.972c0.118,0.31 0.239,0.603 0.362,0.879c0.123,0.276 0.243,0.532 0.36,0.769Zm7.726,0.068l0.129,-0.754c-0.234,-0.021 -0.387,-0.08 -0.458,-0.177c-0.071,-0.097 -0.107,-0.243 -0.107,-0.439l0,-4.13l-0.913,0.149l0,4.148c0,0.254 0.038,0.47 0.113,0.646c0.075,0.176 0.211,0.311 0.407,0.404c0.196,0.093 0.472,0.145 0.829,0.154Zm-18.718,0.014c0.217,0 0.403,-0.02 0.559,-0.061c0.156,-0.041 0.29,-0.086 0.402,-0.135l-0.138,-0.716c-0.091,0.036 -0.196,0.067 -0.315,0.094c-0.119,0.026 -0.243,0.039 -0.371,0.039c-0.153,0 -0.274,-0.028 -0.365,-0.084c-0.09,-0.056 -0.155,-0.142 -0.194,-0.258c-0.039,-0.116 -0.059,-0.26 -0.059,-0.433l0,-1.435l1.295,0l0,-0.761l-1.295,0l0,-1.099l-0.913,0.149l0,3.146c0,0.318 0.041,0.594 0.122,0.826c0.081,0.232 0.223,0.412 0.427,0.538c0.204,0.127 0.486,0.19 0.846,0.19Zm14.915,-0.005c0.36,0 0.672,-0.022 0.934,-0.066c0.262,-0.044 0.462,-0.081 0.599,-0.111l0,-2.196c0,-0.296 -0.047,-0.555 -0.14,-0.775c-0.093,-0.221 -0.252,-0.391 -0.475,-0.511c-0.223,-0.12 -0.531,-0.18 -0.921,-0.18c-0.24,0 -0.467,0.019 -0.68,0.057c-0.213,0.038 -0.375,0.076 -0.487,0.113l0.117,0.742c0.111,-0.041 0.248,-0.076 0.411,-0.104c0.163,-0.029 0.344,-0.043 0.541,-0.043c0.195,0 0.347,0.03 0.456,0.09c0.109,0.06 0.186,0.141 0.231,0.242c0.045,0.101 0.067,0.218 0.067,0.348l0,0.126c-0.058,-0.019 -0.145,-0.035 -0.26,-0.05c-0.115,-0.015 -0.239,-0.022 -0.374,-0.022c-0.272,0 -0.526,0.036 -0.762,0.109c-0.236,0.073 -0.426,0.193 -0.569,0.361c-0.143,0.167 -0.214,0.393 -0.214,0.676c0,0.293 0.064,0.527 0.191,0.702c0.127,0.175 0.306,0.301 0.535,0.377c0.23,0.076 0.496,0.115 0.8,0.115Zm0.072,-0.716c-0.212,0 -0.38,-0.036 -0.503,-0.109c-0.123,-0.073 -0.185,-0.203 -0.185,-0.391c0,-0.136 0.038,-0.24 0.113,-0.31c0.075,-0.07 0.172,-0.118 0.291,-0.143c0.119,-0.026 0.246,-0.038 0.381,-0.038c0.097,0 0.191,0.006 0.282,0.019c0.091,0.013 0.158,0.026 0.201,0.038l0,0.898c-0.064,0.012 -0.148,0.021 -0.25,0.027c-0.103,0.006 -0.213,0.01 -0.331,0.01Zm-5.609,0.707l0.13,-0.754c-0.235,-0.021 -0.387,-0.08 -0.459,-0.177c-0.071,-0.097 -0.107,-0.243 -0.107,-0.439l0,-4.13l-0.913,0.149l0,4.148c0,0.254 0.038,0.47 0.113,0.646c0.075,0.176 0.211,0.311 0.407,0.404c0.196,0.093 0.472,0.145 0.829,0.154Zm11.401,0.009c0.361,0 0.672,-0.022 0.934,-0.066c0.263,-0.044 0.462,-0.081 0.599,-0.111l0,-2.196c0,-0.296 -0.047,-0.555 -0.14,-0.775c-0.093,-0.221 -0.252,-0.391 -0.475,-0.511c-0.223,-0.12 -0.531,-0.18 -0.921,-0.18c-0.24,0 -0.467,0.019 -0.68,0.057c-0.213,0.038 -0.375,0.076 -0.487,0.113l0.117,0.742c0.111,-0.041 0.248,-0.076 0.411,-0.104c0.163,-0.029 0.344,-0.043 0.541,-0.043c0.195,0 0.347,0.03 0.456,0.09c0.109,0.06 0.186,0.141 0.231,0.242c0.045,0.101 0.067,0.218 0.067,0.348l0,0.126c-0.058,-0.019 -0.145,-0.035 -0.26,-0.05c-0.115,-0.015 -0.239,-0.022 -0.374,-0.022c-0.272,0 -0.526,0.036 -0.762,0.109c-0.236,0.073 -0.426,0.193 -0.569,0.361c-0.143,0.167 -0.214,0.393 -0.214,0.676c0,0.293 0.064,0.527 0.191,0.702c0.127,0.175 0.306,0.301 0.536,0.377c0.23,0.076 0.496,0.115 0.8,0.115Zm0.072,-0.716c-0.212,0 -0.38,-0.036 -0.503,-0.109c-0.123,-0.073 -0.185,-0.203 -0.185,-0.391c0,-0.136 0.038,-0.24 0.113,-0.31c0.075,-0.07 0.172,-0.118 0.291,-0.143c0.119,-0.026 0.246,-0.038 0.381,-0.038c0.097,0 0.191,0.006 0.282,0.019c0.091,0.013 0.158,0.026 0.201,0.038l0,0.898c-0.064,0.012 -0.148,0.021 -0.25,0.027c-0.103,0.006 -0.213,0.01 -0.331,0.01Zm-23.627,-3.687c0.154,0 0.286,-0.05 0.396,-0.15c0.11,-0.1 0.164,-0.237 0.164,-0.409c0,-0.173 -0.055,-0.308 -0.164,-0.406c-0.11,-0.098 -0.242,-0.147 -0.396,-0.147c-0.154,0 -0.286,0.049 -0.395,0.147c-0.11,0.098 -0.165,0.233 -0.165,0.406c0,0.173 0.055,0.309 0.165,0.409c0.11,0.1 0.242,0.15 0.395,0.15Zm-0.455,4.326l0.91,0l0,-3.668l-0.91,0l0,3.668Zm28.168,0.089c0.178,0 0.358,-0.01 0.537,-0.029c0.18,-0.019 0.351,-0.045 0.513,-0.077c0.162,-0.032 0.3,-0.066 0.413,-0.101l0,-5.315l-0.912,0.149l0,1.729c-0.109,-0.054 -0.227,-0.099 -0.355,-0.136c-0.128,-0.037 -0.275,-0.055 -0.439,-0.055c-0.345,0 -0.641,0.079 -0.885,0.236c-0.245,0.158 -0.433,0.38 -0.563,0.668c-0.13,0.288 -0.195,0.629 -0.195,1.024c0,0.392 0.076,0.731 0.227,1.017c0.151,0.286 0.367,0.505 0.648,0.659c0.281,0.153 0.618,0.23 1.012,0.23Zm0.007,-0.784c-0.202,0 -0.374,-0.047 -0.518,-0.142c-0.143,-0.095 -0.253,-0.229 -0.328,-0.403c-0.075,-0.174 -0.113,-0.379 -0.113,-0.616c0,-0.175 0.016,-0.331 0.049,-0.469c0.033,-0.138 0.084,-0.254 0.154,-0.35c0.07,-0.096 0.157,-0.168 0.262,-0.218c0.105,-0.05 0.231,-0.074 0.378,-0.074c0.132,0 0.258,0.019 0.377,0.057c0.12,0.038 0.214,0.081 0.283,0.129l0,2.037c-0.056,0.012 -0.13,0.023 -0.223,0.033c-0.093,0.01 -0.2,0.016 -0.321,0.016Zm4.141,0.787c0.257,0 0.5,-0.025 0.731,-0.074c0.231,-0.05 0.397,-0.1 0.497,-0.151l-0.128,-0.745c-0.104,0.047 -0.244,0.089 -0.42,0.126c-0.176,0.037 -0.366,0.056 -0.569,0.056c-0.331,0 -0.589,-0.076 -0.773,-0.227c-0.184,-0.151 -0.287,-0.358 -0.309,-0.622l2.406,0c0.005,-0.051 0.009,-0.11 0.013,-0.175c0.004,-0.065 0.006,-0.125 0.006,-0.178c0,-0.413 -0.067,-0.757 -0.2,-1.033c-0.134,-0.276 -0.323,-0.483 -0.567,-0.622c-0.244,-0.139 -0.536,-0.208 -0.874,-0.208c-0.292,0 -0.569,0.073 -0.831,0.218c-0.262,0.145 -0.477,0.362 -0.643,0.651c-0.166,0.289 -0.249,0.649 -0.249,1.081c0,0.36 0.068,0.685 0.204,0.973c0.136,0.288 0.344,0.516 0.626,0.683c0.281,0.167 0.641,0.25 1.08,0.25Zm-0.966,-2.28c0.018,-0.141 0.056,-0.274 0.116,-0.397c0.06,-0.124 0.145,-0.224 0.256,-0.302c0.11,-0.078 0.251,-0.116 0.421,-0.116c0.169,0 0.307,0.038 0.413,0.113c0.106,0.075 0.186,0.174 0.24,0.298c0.054,0.123 0.083,0.258 0.088,0.405l-1.533,0Z"/></g></svg>